<svg width="30" height="30" viewBox="0 0 30 30" fill="none" xmlns="http://www.w3.org/2000/svg">
<circle cx="15" cy="15" r="15" fill="white"/>
<path d="M18.332 9.33301H11.6654C9.66536 9.33301 8.33203 10.333 8.33203 12.6663V17.333C8.33203 19.6663 9.66536 20.6663 11.6654 20.6663H18.332C20.332 20.6663 21.6654 19.6663 21.6654 17.333V12.6663C21.6654 10.333 20.332 9.33301 18.332 9.33301ZM18.6454 13.393L16.5587 15.0597C16.1187 15.413 15.5587 15.5863 14.9987 15.5863C14.4387 15.5863 13.872 15.413 13.4387 15.0597L11.352 13.393C11.1387 13.2197 11.1054 12.8997 11.272 12.6863C11.4454 12.473 11.7587 12.433 11.972 12.6063L14.0587 14.273C14.5654 14.6797 15.4254 14.6797 15.932 14.273L18.0187 12.6063C18.232 12.433 18.552 12.4663 18.7187 12.6863C18.892 12.8997 18.8587 13.2197 18.6454 13.393Z" fill="#2A285F"/>
</svg>
