<svg width="30" height="30" viewBox="0 0 30 30" fill="none" xmlns="http://www.w3.org/2000/svg">
<circle cx="15" cy="15" r="15" fill="white"/>
<g clip-path="url(#clip0_5071_60593)">
<path d="M20.7448 12.6337C20.0448 9.55366 17.3581 8.16699 14.9981 8.16699C14.9981 8.16699 14.9981 8.16699 14.9914 8.16699C12.6381 8.16699 9.94478 9.54699 9.24478 12.627C8.46478 16.067 10.5714 18.9803 12.4781 20.8137C13.1848 21.4937 14.0914 21.8337 14.9981 21.8337C15.9048 21.8337 16.8114 21.4937 17.5114 20.8137C19.4181 18.9803 21.5248 16.0737 20.7448 12.6337ZM14.9981 15.9737C13.8381 15.9737 12.8981 15.0337 12.8981 13.8737C12.8981 12.7137 13.8381 11.7737 14.9981 11.7737C16.1581 11.7737 17.0981 12.7137 17.0981 13.8737C17.0981 15.0337 16.1581 15.9737 14.9981 15.9737Z" fill="#2A285F"/>
</g>
<defs>
<clipPath id="clip0_5071_60593">
<rect width="16" height="16" fill="white" transform="translate(7 7)"/>
</clipPath>
</defs>
</svg>
