<svg width="48" height="49" viewBox="0 0 48 49" fill="none" xmlns="http://www.w3.org/2000/svg">
<path d="M23.9999 0.0566479C10.7501 0.0566479 0 10.9139 0 24.3218C0 37.7322 10.7501 48.6748 23.9999 48.6748C37.2496 48.6748 48 37.7297 48 24.3218C48 19.0282 46.345 14.1971 43.4999 10.2057L47.2065 8.35117C48.0218 7.95446 48.219 6.68153 47.5594 6.05847L44.7361 3.23515L41.9131 0.411977C41.7304 0.232976 41.5033 0.105716 41.2553 0.0432785C41.0072 -0.0191587 40.7469 -0.0145199 40.5013 0.0566479C40.155 0.180701 39.8699 0.433459 39.7053 0.762404L37.8532 4.46914C33.8043 1.59827 28.9633 0.0563823 23.9999 0.0566479ZM23.9999 2.87982C28.7166 2.87982 33.0149 4.47653 36.5294 7.1148L34.059 12.0554V12.1454C34.0346 12.1162 33.9908 12.1746 33.9713 12.1454C31.2309 9.92089 27.7991 8.52631 23.9999 8.52631C15.26 8.52631 8.11671 15.5795 8.11671 24.3218C8.11671 33.0617 15.26 40.2049 23.9999 40.2049C32.7421 40.2049 39.883 33.0617 39.883 24.3218C39.8878 20.5228 38.5077 16.8524 36.0011 13.9977L40.8542 11.5273C43.5217 15.1172 45.1767 19.4639 45.1767 24.3218C45.1767 36.2256 35.7019 45.8514 24.0025 45.8514C12.2983 45.8514 2.82332 36.2256 2.82332 24.3218C2.82332 12.418 12.298 2.87982 23.9999 2.87982ZM23.9999 11.3496C26.9062 11.3492 29.7308 12.3121 32.0316 14.0877L27.882 18.1472C26.7552 17.4633 25.409 16.9985 23.9999 16.9985C19.9354 16.9985 16.589 20.2598 16.589 24.3243C16.5999 26.2865 17.384 28.1652 18.7715 29.5527C20.159 30.9401 22.0377 31.7244 23.9999 31.7353C25.9624 31.7244 27.8415 30.9398 29.2291 29.5518C30.6166 28.1638 31.4007 26.2844 31.411 24.3218C31.411 22.6887 30.9121 21.2138 29.9994 19.9993L33.9713 16.0274C35.8819 18.2787 37.06 21.1213 37.06 24.3218C37.0606 26.037 36.7232 27.7357 36.0671 29.3205C35.411 30.9053 34.4489 32.3451 33.236 33.558C32.0232 34.7708 30.5833 35.7329 28.9985 36.389C27.4137 37.0451 25.7151 37.3824 23.9999 37.3818C22.2846 37.3824 20.5863 37.0451 19.0015 36.389C17.4167 35.7329 15.9765 34.7708 14.7637 33.558C13.5508 32.3451 12.589 30.9053 11.9329 29.3205C11.2768 27.7357 10.9394 26.037 10.94 24.3218C10.94 17.108 16.7836 11.3496 23.9999 11.3496ZM23.9999 19.8217C24.6326 19.8217 25.217 19.9531 25.7646 20.1746L23.0289 22.9979C22.8736 23.1195 22.7455 23.2721 22.6528 23.4461C22.5601 23.6202 22.505 23.8117 22.4909 24.0084C22.4768 24.205 22.504 24.4025 22.5708 24.588C22.6376 24.7735 22.7426 24.943 22.8789 25.0855C23.0152 25.228 23.1799 25.3403 23.3623 25.4153C23.5447 25.4902 23.7406 25.526 23.9378 25.5206C24.1349 25.5152 24.3287 25.4685 24.5067 25.3836C24.6847 25.2987 24.8428 25.1775 24.9711 25.0277L27.9697 22.0293C28.381 22.701 28.5876 23.4651 28.5876 24.3218C28.5883 24.9246 28.4703 25.5217 28.24 26.0787C28.0097 26.6357 27.6718 27.1419 27.2456 27.5682C26.8195 27.9945 26.3135 28.3327 25.7566 28.5633C25.1997 28.7939 24.6026 28.9124 23.9999 28.9121C23.3971 28.9124 22.8003 28.7939 22.2434 28.5633C21.6865 28.3327 21.1805 27.9945 20.7544 27.5682C20.3282 27.1419 19.9903 26.6357 19.76 26.0787C19.5297 25.5217 19.4117 24.9246 19.4124 24.3218C19.4124 21.7858 21.4638 19.8217 23.9999 19.8217Z" fill="#F68A29"/>
</svg>
