<svg width="21" height="20" viewBox="0 0 21 20" fill="none" xmlns="http://www.w3.org/2000/svg">
<path d="M18.3292 15.2743C18.3292 15.5743 18.2625 15.8827 18.1208 16.1827C17.9792 16.4827 17.7958 16.766 17.5542 17.0327C17.1458 17.4827 16.6958 17.8077 16.1875 18.016C15.6875 18.2243 15.1458 18.3327 14.5625 18.3327C13.7125 18.3327 12.8042 18.1327 11.8458 17.7243C10.8875 17.316 9.92917 16.766 8.97917 16.0743C8.02083 15.3743 7.1125 14.5993 6.24583 13.741C5.3875 12.8743 4.6125 11.966 3.92083 11.016C3.2375 10.066 2.6875 9.11602 2.2875 8.17435C1.8875 7.22435 1.6875 6.31602 1.6875 5.44935C1.6875 4.88268 1.7875 4.34102 1.9875 3.84102C2.1875 3.33268 2.50417 2.86602 2.94583 2.44935C3.47917 1.92435 4.0625 1.66602 4.67917 1.66602C4.9125 1.66602 5.14583 1.71602 5.35417 1.81602C5.57083 1.91602 5.7625 2.06602 5.9125 2.28268L7.84583 5.00768C7.99583 5.21602 8.10417 5.40768 8.17917 5.59102C8.25417 5.76602 8.29583 5.94102 8.29583 6.09935C8.29583 6.29935 8.2375 6.49935 8.12083 6.69102C8.0125 6.88268 7.85417 7.08268 7.65417 7.28268L7.02083 7.94102C6.92917 8.03268 6.8875 8.14102 6.8875 8.27435C6.8875 8.34102 6.89583 8.39935 6.9125 8.46602C6.9375 8.53268 6.9625 8.58268 6.97917 8.63268C7.12917 8.90768 7.3875 9.26602 7.75417 9.69935C8.12917 10.1327 8.52917 10.5743 8.9625 11.016C9.4125 11.4577 9.84583 11.866 10.2875 12.241C10.7208 12.6077 11.0792 12.8577 11.3625 13.0077C11.4042 13.0243 11.4542 13.0493 11.5125 13.0743C11.5792 13.0993 11.6458 13.1077 11.7208 13.1077C11.8625 13.1077 11.9708 13.0577 12.0625 12.966L12.6958 12.341C12.9042 12.1327 13.1042 11.9743 13.2958 11.8743C13.4875 11.7577 13.6792 11.6993 13.8875 11.6993C14.0458 11.6993 14.2125 11.7327 14.3958 11.8077C14.5792 11.8827 14.7708 11.991 14.9792 12.1327L17.7375 14.091C17.9542 14.241 18.1042 14.416 18.1958 14.6243C18.2792 14.8327 18.3292 15.041 18.3292 15.2743Z" stroke="#A7A9B7" stroke-width="1.29403" stroke-miterlimit="10"/>
</svg>
