<svg width="30" height="30" viewBox="0 0 30 30" fill="none" xmlns="http://www.w3.org/2000/svg">
<circle cx="15" cy="15" r="15" fill="white"/>
<path d="M18.7454 14.1667C18.4587 14.1667 18.232 13.9334 18.232 13.6534C18.232 13.4067 17.9854 12.8934 17.572 12.4467C17.1654 12.0134 16.7187 11.7601 16.3454 11.7601C16.0587 11.7601 15.832 11.5267 15.832 11.2467C15.832 10.9667 16.0654 10.7334 16.3454 10.7334C17.012 10.7334 17.712 11.0934 18.3254 11.7401C18.8987 12.3467 19.2654 13.1001 19.2654 13.6467C19.2654 13.9334 19.032 14.1667 18.7454 14.1667Z" fill="#2A285F"/>
<path d="M21.1532 14.1663C20.8665 14.1663 20.6398 13.933 20.6398 13.653C20.6398 11.2863 18.7132 9.36634 16.3532 9.36634C16.0665 9.36634 15.8398 9.13301 15.8398 8.85301C15.8398 8.57301 16.0665 8.33301 16.3465 8.33301C19.2798 8.33301 21.6665 10.7197 21.6665 13.653C21.6665 13.933 21.4332 14.1663 21.1532 14.1663Z" fill="#2A285F"/>
<path d="M14.3654 16.9663L13.132 18.1997C12.872 18.4597 12.4587 18.4597 12.192 18.2063C12.1187 18.133 12.0454 18.0663 11.972 17.993C11.2854 17.2997 10.6654 16.573 10.112 15.813C9.56536 15.053 9.12536 14.293 8.80536 13.5397C8.49203 12.7797 8.33203 12.053 8.33203 11.3597C8.33203 10.9063 8.41203 10.473 8.57203 10.073C8.73203 9.66634 8.98536 9.29301 9.3387 8.95967C9.76536 8.53967 10.232 8.33301 10.7254 8.33301C10.912 8.33301 11.0987 8.37301 11.2654 8.45301C11.4387 8.53301 11.592 8.65301 11.712 8.82634L13.2587 11.0063C13.3787 11.173 13.4654 11.3263 13.5254 11.473C13.5854 11.613 13.6187 11.753 13.6187 11.8797C13.6187 12.0397 13.572 12.1997 13.4787 12.353C13.392 12.5063 13.2654 12.6663 13.1054 12.8263L12.5987 13.353C12.5254 13.4263 12.492 13.513 12.492 13.6197C12.492 13.673 12.4987 13.7197 12.512 13.773C12.532 13.8263 12.552 13.8663 12.5654 13.9063C12.6854 14.1263 12.892 14.413 13.1854 14.7597C13.4854 15.1063 13.8054 15.4597 14.152 15.813C14.2187 15.8797 14.292 15.9463 14.3587 16.013C14.6254 16.273 14.632 16.6997 14.3654 16.9663Z" fill="#2A285F"/>
<path d="M21.6451 19.2204C21.6451 19.407 21.6118 19.6004 21.5451 19.787C21.5251 19.8404 21.5051 19.8937 21.4784 19.947C21.3651 20.187 21.2184 20.4137 21.0251 20.627C20.6984 20.987 20.3384 21.247 19.9318 21.4137C19.9251 21.4137 19.9184 21.4204 19.9118 21.4204C19.5184 21.5804 19.0918 21.667 18.6318 21.667C17.9518 21.667 17.2251 21.507 16.4584 21.1804C15.6918 20.8537 14.9251 20.4137 14.1651 19.8604C13.9051 19.667 13.6451 19.4737 13.3984 19.267L15.5784 17.087C15.7651 17.227 15.9318 17.3337 16.0718 17.407C16.1051 17.4204 16.1451 17.4404 16.1918 17.4604C16.2451 17.4804 16.2984 17.487 16.3584 17.487C16.4718 17.487 16.5584 17.447 16.6318 17.3737L17.1384 16.8737C17.3051 16.707 17.4651 16.5804 17.6184 16.5004C17.7718 16.407 17.9251 16.3604 18.0918 16.3604C18.2184 16.3604 18.3518 16.387 18.4984 16.447C18.6451 16.507 18.7984 16.5937 18.9651 16.707L21.1718 18.2737C21.3451 18.3937 21.4651 18.5337 21.5384 18.7004C21.6051 18.867 21.6451 19.0337 21.6451 19.2204Z" fill="#2A285F"/>
</svg>
