<svg width="48" height="48" viewBox="0 0 48 48" fill="none" xmlns="http://www.w3.org/2000/svg">
<g clip-path="url(#clip0_5071_60445)">
<path d="M30.9692 24.7506C29.6942 25.9037 25.5141 30.7811 24.7196 31.6722C24.537 31.8833 24.2778 31.9986 23.9996 31.9986C23.7211 31.9986 23.4619 31.8737 23.2796 31.6722C22.6091 30.933 25.7083 34.3497 16.7227 24.4433C13.7977 21.3135 15.9465 16.005 20.1692 16.005C21.6668 16.005 23.097 16.7537 24.0092 17.9633C24.9115 16.7537 26.3419 16.005 27.8396 16.005C32.2578 16.005 34.3229 21.7671 30.9692 24.7506Z" fill="#F68A29"/>
<path d="M44.1869 7.10064C40.8428 4.34059 35.7424 4.48233 31.4744 5.4258C29.4046 2.61014 26.8279 0.960022 24.0034 0.960022C21.179 0.960022 18.6023 2.61014 16.5325 5.42581C12.2649 4.48244 7.16426 4.34043 3.81998 7.10065C-1.15199 11.2074 1.14764 18.5737 4.74858 24.0005C1.15189 29.4216 -1.14851 36.7965 3.81998 40.9003C7.17686 43.671 12.298 43.5101 16.5325 42.5744C18.6023 45.3899 21.179 47.04 24.0034 47.04C26.8279 47.04 29.4046 45.3899 31.4744 42.5744C39.5664 44.3626 47.0434 42.1048 47.0434 34.4419C47.0434 31.2837 45.6803 27.6511 43.2583 24.0005C46.855 18.5801 49.1549 11.2042 44.1869 7.10064ZM42.9644 8.58189C46.8668 11.8049 44.8119 17.9974 42.0822 22.3287C40.33 19.9988 38.154 17.6931 35.6383 15.5241C34.9666 12.3017 33.9198 9.45213 32.59 7.14659C35.9886 6.49445 40.2943 6.3776 42.9644 8.58189ZM33.6034 31.6903C30.565 34.199 27.2802 36.2986 24.0034 37.8907C20.7266 36.2986 17.4419 34.199 14.4034 31.6903C14.3195 31.6211 14.2408 31.5497 14.1578 31.4802C13.6989 29.142 13.4434 26.6186 13.4434 24C13.4434 21.3815 13.6989 18.8581 14.1578 16.5198C17.2359 13.9373 20.6016 11.7622 24.0034 10.1093C27.3802 11.75 30.7486 13.9187 33.8491 16.5199C34.308 18.8581 34.5634 21.3815 34.5634 24C34.5634 26.6186 34.308 29.142 33.8491 31.4802C33.7661 31.5498 33.6873 31.6211 33.6034 31.6903ZM33.1061 34.5242C32.4449 36.7627 31.5845 38.7512 30.5767 40.384C29.1615 40.0038 27.7115 39.5063 26.2461 38.8987C28.5805 37.667 30.8938 36.1974 33.1061 34.5242ZM21.7607 38.8987C20.2954 39.5063 18.8453 40.0039 17.4301 40.384C16.4223 38.7512 15.5619 36.7627 14.9008 34.5242C17.113 36.1974 19.4263 37.667 21.7607 38.8987ZM11.863 29.4399C10.0002 27.6673 8.39242 25.8319 7.06374 24.0004C8.39241 22.1688 10.0002 20.3333 11.863 18.5605C11.643 20.3002 11.5234 22.1192 11.5234 24C11.5234 25.881 11.643 27.7001 11.863 29.4399ZM14.9008 13.4759C15.5619 11.2374 16.4223 9.24881 17.4301 7.61604C18.8455 7.9962 20.2956 8.49378 21.7609 9.1015C19.4263 10.3331 17.113 11.8028 14.9008 13.4759ZM26.2459 9.1015C27.7112 8.49377 29.1613 7.99619 30.5767 7.61604C31.5845 9.24882 32.4449 11.2374 33.1061 13.4759C30.8938 11.8028 28.5805 10.3331 26.2459 9.1015ZM36.1438 18.5605C38.0066 20.3333 39.6144 22.1689 40.9431 24.0004C39.6144 25.8319 38.0066 27.6673 36.1438 29.4399C36.3639 27.7001 36.4834 25.881 36.4834 24C36.4834 22.1192 36.3639 20.3002 36.1438 18.5605ZM24.0034 2.88002C25.96 2.88002 27.812 4.01111 29.4034 5.95549C27.6337 6.47264 25.8212 7.15994 24.0034 7.99596C22.1856 7.15994 20.3732 6.47264 18.6034 5.95549C20.1948 4.01111 22.0469 2.88002 24.0034 2.88002ZM5.04249 8.58189C7.71171 6.37829 12.016 6.49403 15.4169 7.14658C14.087 9.45212 13.0403 12.3017 12.3686 15.5241C9.8528 17.6931 7.67686 19.9988 5.92468 22.3287C3.19924 18.0042 1.13856 11.8062 5.04249 8.58189ZM5.04249 39.4191C1.14012 36.1961 3.19527 30.0035 5.92468 25.6721C7.67687 28.0016 9.85281 30.3071 12.3686 32.476C13.0403 35.6983 14.087 38.5479 15.4169 40.8535C12.0083 41.5075 7.70553 41.619 5.04249 39.4191ZM24.0034 45.12C22.0471 45.12 20.1948 43.989 18.6037 42.0448C20.3732 41.5278 22.1856 40.8403 24.0034 40.0043C25.8212 40.8403 27.6337 41.5278 29.4032 42.0448C27.812 43.989 25.9598 45.12 24.0034 45.12ZM45.1234 34.4419C45.1234 40.7459 38.8397 42.0527 32.59 40.8535C33.9198 38.5479 34.9666 35.6983 35.6383 32.476C38.1541 30.3071 40.33 28.0016 42.0822 25.6721C44.0378 28.7755 45.1234 31.8087 45.1234 34.4419Z" fill="#F68A29"/>
</g>
<defs>
<clipPath id="clip0_5071_60445">
<rect width="48" height="48" fill="white"/>
</clipPath>
</defs>
</svg>
