<svg width="48" height="48" viewBox="0 0 48 48" fill="none" xmlns="http://www.w3.org/2000/svg">
<path d="M14.2501 26.4381H10.5939C10.0782 26.4381 9.65635 26.86 9.65635 27.3756V42.0943C9.65635 42.61 10.0782 43.0318 10.5939 43.0318H14.2501C14.7657 43.0318 15.1876 42.61 15.1876 42.0943V27.3756C15.1876 26.86 14.7657 26.4381 14.2501 26.4381ZM13.3126 41.1568H11.5314V28.3131H13.3126V41.1568ZM6.84385 34.5006H3.1876C2.67198 34.5006 2.2501 34.9225 2.2501 35.4381V42.0943C2.2501 42.61 2.67198 43.0318 3.1876 43.0318H6.84385C7.35948 43.0318 7.78135 42.61 7.78135 42.0943V35.4381C7.78135 34.9225 7.35948 34.5006 6.84385 34.5006ZM5.90635 41.1568H4.1251V36.3756H5.90635V41.1568ZM3.1126 29.935L20.4564 12.5912L24.0001 16.1443C24.3657 16.51 24.9564 16.51 25.322 16.1443L36.1314 5.33496L36.122 9.46934C36.122 9.98496 36.5345 10.3975 37.0501 10.3975C37.0501 10.3975 37.0501 10.3975 37.0595 10.3975C37.5751 10.3975 37.997 9.98496 37.997 9.46934L38.0064 3.05684C38.0064 2.81309 37.9032 2.57871 37.7345 2.40996C37.5564 2.24121 37.322 2.14746 37.0689 2.14746H30.6564C30.1407 2.16621 29.7282 2.59746 29.747 3.11309C29.7657 3.60996 30.1595 4.01309 30.6564 4.02246L34.8095 4.00371L24.6657 14.1568L21.1126 10.6037C20.747 10.2381 20.1564 10.2381 19.7907 10.6037L1.78135 28.6131C1.40635 28.9693 1.39698 29.5693 1.7626 29.935C2.12823 30.3006 2.71885 30.3193 3.08447 29.9537C3.09385 29.9537 3.10322 29.9443 3.1126 29.935ZM37.2189 28.9225V14.9162C37.2282 14.4006 36.8157 13.9787 36.3001 13.9693H32.672C32.1564 13.9693 31.6876 14.4006 31.6876 14.9162V27.91C31.0876 27.9568 30.497 28.0412 29.9064 28.1725V19.8006C29.9064 19.2756 29.4845 18.8537 28.9689 18.8443H25.3407C24.8157 18.8537 24.3845 19.2756 24.3751 19.8006V30.6568C23.8126 31.0787 23.1564 31.5381 22.5939 32.0443V25.1818C22.5939 24.6662 22.1532 24.2818 21.6376 24.2818H18.0095C17.4939 24.2818 17.0626 24.6568 17.0626 25.1818V42.1037C17.072 42.6193 17.4939 43.0412 18.0095 43.0318H21.6376C22.1626 43.0318 22.5845 42.6193 22.5939 42.1037V41.71C25.1251 43.8193 28.547 45.8725 32.4001 45.8725C35.597 45.8725 39.0189 44.4006 42.3095 41.6256C43.7907 40.3787 45.1314 38.9725 46.3126 37.435C46.547 37.1068 46.547 36.6568 46.3032 36.3287C46.1439 36.1037 42.4689 31.135 37.2189 28.9225ZM33.5626 15.8443H35.3439V28.285C34.7626 28.1256 34.1626 28.0131 33.5626 27.9568V15.8443ZM26.2501 20.7193H28.0314V28.735C27.4689 28.96 26.9064 29.2225 26.2501 29.5318V20.7193ZM18.9376 26.1568H20.7189V33.7787C20.0814 34.3787 19.4814 35.0256 18.9376 35.7193V26.1568ZM20.7189 41.1568H18.9376V38.035C19.4814 38.7287 20.0814 39.3756 20.7189 39.9756V41.1568ZM32.3907 43.9975C30.1876 43.9975 26.6814 43.1537 22.4907 39.1131C21.7595 38.41 21.0657 37.66 20.4188 36.8725C21.0189 36.1412 21.6657 35.4381 22.3407 34.7818C23.4282 33.7037 24.6282 32.7475 25.9032 31.9131C26.9532 31.2193 28.097 30.6662 29.2876 30.2725C30.2907 29.9443 31.3314 29.7662 32.3814 29.7568C32.4657 29.7568 32.5407 29.7568 32.6064 29.7568C32.6157 29.7568 32.6251 29.7568 32.6345 29.7568C33.7407 29.7943 34.8282 30.01 35.8689 30.3943C39.947 31.8662 43.2189 35.485 44.3532 36.8631C42.9095 38.635 38.0345 43.9975 32.3907 43.9975Z" fill="#F68A29"/>
<path d="M32.3906 30.6372C28.95 30.6372 26.1562 33.431 26.1562 36.8716C26.1562 40.3122 28.95 43.106 32.3906 43.106C35.8313 43.106 38.625 40.3122 38.625 36.8716C38.625 33.431 35.8313 30.6466 32.3906 30.6372ZM32.3906 41.231C29.9812 41.231 28.0312 39.281 28.0312 36.8716C28.0312 34.4622 29.9812 32.5122 32.3906 32.5122C34.8 32.5122 36.75 34.4622 36.75 36.8716C36.75 39.281 34.8 41.231 32.3906 41.231Z" fill="#F68A29"/>
</svg>
