<svg width="30" height="30" viewBox="0 0 30 30" fill="none" xmlns="http://www.w3.org/2000/svg">
<circle cx="15" cy="15" r="15" fill="white"/>
<g clip-path="url(#clip0_5071_60571)">
<path d="M12.0991 20.9402C12.0791 20.9402 12.0524 20.9536 12.0324 20.9536C10.7391 20.3136 9.68573 19.2536 9.03906 17.9602C9.03906 17.9402 9.0524 17.9136 9.0524 17.8936C9.86573 18.1336 10.7057 18.3136 11.5391 18.4536C11.6857 19.2936 11.8591 20.1269 12.0991 20.9402Z" fill="#2A285F"/>
<path d="M20.9594 17.9669C20.2994 19.2936 19.1994 20.3669 17.8594 21.0136C18.1127 20.1669 18.326 19.3136 18.466 18.4536C19.306 18.3136 20.1327 18.1336 20.946 17.8936C20.9394 17.9202 20.9594 17.9469 20.9594 17.9669Z" fill="#2A285F"/>
<path d="M21.0127 12.1397C20.1727 11.8863 19.326 11.6797 18.466 11.533C18.326 10.673 18.1194 9.81966 17.8594 8.98633C19.2394 9.64633 20.3527 10.7597 21.0127 12.1397Z" fill="#2A285F"/>
<path d="M12.1016 9.06004C11.8616 9.87337 11.6883 10.7 11.5483 11.54C10.6883 11.6734 9.83495 11.8867 8.98828 12.14C9.63495 10.8 10.7083 9.70004 12.0349 9.04004C12.0549 9.04004 12.0816 9.06004 12.1016 9.06004Z" fill="#2A285F"/>
<path d="M17.3252 11.393C15.7785 11.2197 14.2185 11.2197 12.6719 11.393C12.8385 10.4797 13.0519 9.56634 13.3519 8.68634C13.3652 8.63301 13.3585 8.59301 13.3652 8.53967C13.8919 8.41301 14.4319 8.33301 14.9985 8.33301C15.5585 8.33301 16.1052 8.41301 16.6252 8.53967C16.6319 8.59301 16.6319 8.63301 16.6452 8.68634C16.9452 9.57301 17.1585 10.4797 17.3252 11.393Z" fill="#2A285F"/>
<path d="M11.392 17.3262C10.472 17.1595 9.56536 16.9462 8.68536 16.6462C8.63203 16.6329 8.59203 16.6395 8.5387 16.6329C8.41203 16.1062 8.33203 15.5662 8.33203 14.9995C8.33203 14.4395 8.41203 13.8929 8.5387 13.3729C8.59203 13.3662 8.63203 13.3662 8.68536 13.3529C9.57203 13.0595 10.472 12.8395 11.392 12.6729C11.2254 14.2195 11.2254 15.7795 11.392 17.3262Z" fill="#2A285F"/>
<path d="M21.6655 14.9995C21.6655 15.5662 21.5855 16.1062 21.4588 16.6329C21.4055 16.6395 21.3655 16.6329 21.3121 16.6462C20.4255 16.9395 19.5188 17.1595 18.6055 17.3262C18.7788 15.7795 18.7788 14.2195 18.6055 12.6729C19.5188 12.8395 20.4321 13.0529 21.3121 13.3529C21.3655 13.3662 21.4055 13.3729 21.4588 13.3729C21.5855 13.8995 21.6655 14.4395 21.6655 14.9995Z" fill="#2A285F"/>
<path d="M17.3252 18.6064C17.1585 19.5264 16.9452 20.4331 16.6452 21.3131C16.6319 21.3664 16.6319 21.4064 16.6252 21.4598C16.1052 21.5864 15.5585 21.6664 14.9985 21.6664C14.4319 21.6664 13.8919 21.5864 13.3652 21.4598C13.3585 21.4064 13.3652 21.3664 13.3519 21.3131C13.0585 20.4264 12.8385 19.5264 12.6719 18.6064C13.4452 18.6931 14.2185 18.7531 14.9985 18.7531C15.7785 18.7531 16.5585 18.6931 17.3252 18.6064Z" fill="#2A285F"/>
<path d="M17.5076 17.5086C15.8402 17.7189 14.1572 17.7189 12.4898 17.5086C12.2794 15.8412 12.2794 14.1582 12.4898 12.4908C14.1572 12.2804 15.8402 12.2804 17.5076 12.4908C17.718 14.1582 17.718 15.8412 17.5076 17.5086Z" fill="#2A285F"/>
</g>
<defs>
<clipPath id="clip0_5071_60571">
<rect width="16" height="16" fill="white" transform="translate(7 7)"/>
</clipPath>
</defs>
</svg>
